<?xml version="1.0" encoding="UTF-8"?>
<svg id="katman_1" data-name="katman 1" xmlns="http://www.w3.org/2000/svg" xmlns:xlink="http://www.w3.org/1999/xlink" viewBox="0 0 1920 620">
  <defs>
    <style>
      .cls-1 {
        fill: url(#linear-gradient-13);
      }

      .cls-2 {
        fill: url(#linear-gradient-2);
      }

      .cls-3 {
        fill: url(#linear-gradient-10);
      }

      .cls-4 {
        fill: url(#linear-gradient-12);
      }

      .cls-5 {
        fill: url(#linear-gradient-4);
      }

      .cls-6 {
        fill: #575756;
      }

      .cls-7 {
        fill: url(#linear-gradient-3);
      }

      .cls-8 {
        fill: url(#linear-gradient-5);
      }

      .cls-9 {
        fill: url(#linear-gradient-8);
      }

      .cls-10 {
        fill: url(#linear-gradient-7);
      }

      .cls-11 {
        fill: url(#linear-gradient-9);
      }

      .cls-12 {
        fill: url(#linear-gradient-11);
      }

      .cls-13 {
        fill: url(#linear-gradient-6);
      }

      .cls-14 {
        fill: url(#linear-gradient);
      }
    </style>
    <linearGradient id="linear-gradient" x1="337.58" y1="-55.14" x2="184.67" y2="249.44" gradientUnits="userSpaceOnUse">
      <stop offset="0" stop-color="#2f93d1"/>
      <stop offset="1" stop-color="#125aa4"/>
    </linearGradient>
    <linearGradient id="linear-gradient-2" x1="29.8" y1="483.48" x2="218.18" y2="112.84" xlink:href="#linear-gradient"/>
    <linearGradient id="linear-gradient-3" x1="416.55" y1="587.26" x2="653.24" y2="178.1" gradientUnits="userSpaceOnUse">
      <stop offset="0" stop-color="#8cb824"/>
      <stop offset="1" stop-color="#008b39"/>
    </linearGradient>
    <linearGradient id="linear-gradient-4" x1="691.18" y1="163.67" x2="502.19" y2="486.61" xlink:href="#linear-gradient-3"/>
    <linearGradient id="linear-gradient-5" x1="734.89" y1="369.32" x2="734.89" y2="152.8" gradientUnits="userSpaceOnUse">
      <stop offset="0" stop-color="#125aa4"/>
      <stop offset="1" stop-color="#2f93d1"/>
    </linearGradient>
    <linearGradient id="linear-gradient-6" x1="876.94" y1="369.33" x2="876.94" y2="152.8" xlink:href="#linear-gradient-5"/>
    <linearGradient id="linear-gradient-7" x1="985.34" x2="985.34" xlink:href="#linear-gradient-5"/>
    <linearGradient id="linear-gradient-8" x1="1084.7" y1="369.32" x2="1084.7" y2="152.82" xlink:href="#linear-gradient-5"/>
    <linearGradient id="linear-gradient-9" x1="1229.68" y1="369.34" x2="1229.68" y2="152.81" xlink:href="#linear-gradient-5"/>
    <linearGradient id="linear-gradient-10" x1="1369.57" y1="369.32" x2="1369.57" y2="152.82" xlink:href="#linear-gradient-5"/>
    <linearGradient id="linear-gradient-11" x1="1518.5" y1="369.33" x2="1518.5" y2="152.8" xlink:href="#linear-gradient-5"/>
    <linearGradient id="linear-gradient-12" x1="1646.01" y1="369.32" x2="1646.01" y2="152.81" xlink:href="#linear-gradient-5"/>
    <linearGradient id="linear-gradient-13" x1="1748.66" x2="1748.66" xlink:href="#linear-gradient-5"/>
  </defs>
  <g>
    <g>
      <path class="cls-14" d="M449.19,58.92c-22.02-42.2-124.14-42.56-210.24-22.79-86.11,19.78-173.2,48.85-173.2,48.85,0,0,.6.09,1.98.22,23.28-6.47,48.68-13.09,74.02-18.89,86.11-19.77,188.21-19.42,210.24,22.79,41.67,79.76-135.46,318.7-227.7,434.43.03.31.04.47.04.47,0,0,380.64-358.32,324.86-465.08Z"/>
      <path class="cls-2" d="M351.99,89.09c-22.03-42.22-124.14-42.56-210.24-22.79-25.34,5.81-50.74,12.43-74.02,18.89,6.34.56,29.01,1.99,85.02.56,24.2-.6,48.49.2,69.92,3.5,33.62,5.16,60.19,16.47,68.29,38.07,25.03,66.8-32.02,137.55-63.27,181.02-104.28,145.01-103.71,209.08-103.39,215.19,92.24-115.74,269.37-354.68,227.7-434.43Z"/>
    </g>
    <g>
      <path class="cls-7" d="M596.62,473.36c-86.11,19.78-188.21,19.41-210.24-22.79-40.02-76.62,125.15-263.24,221.62-362.52,6.98-33.66-6.92-41.48-6.92-41.48,0,0-342.65,320.35-286.89,427.13,22.03,42.19,124.14,42.54,210.24,22.78,86.12-19.78,187.07-53.21,187.07-53.21,0,0-.9.06-2.68.14-33.74,9.96-74.4,21.27-112.2,29.96Z"/>
      <path class="cls-5" d="M386.38,450.56c22.03,42.2,124.14,42.57,210.24,22.79,37.8-8.69,78.45-20,112.2-29.96-9.06.46-41.2,1.99-98.16,3.44-24.2.6-48.49-.2-69.92-3.5-33.63-5.16-60.21-16.49-68.29-38.07-25.04-66.8,32.02-137.57,63.26-181.02,48.36-67.26,66.8-109.73,72.3-136.21-96.47,99.28-261.65,285.9-221.62,362.52Z"/>
    </g>
  </g>
  <g>
    <g>
      <path class="cls-8" d="M760.69,338.83l-45.61-48.26c-1.93-2.12-3.99-4.9-6.09-8.29-2.25-3.64-3.41-8.01-3.41-12.99,0-5.42,1.22-9.89,3.61-13.27,2.14-3.04,4.19-5.69,6.06-7.9l40.02-43.94h39.76l-52.44,56.42c-1.07,1.15-1.98,2.35-2.67,3.57-.6,1.03-.89,2.42-.89,4.17,0,1.63.49,3.25,1.52,4.93,1.15,1.92,2.51,3.76,4,5.48l56.88,60.07h-40.75ZM668.34,338.83v-149.52c0-26.92,33.47-26.92,33.47-26.92v176.44h-33.47Z"/>
      <path class="cls-13" d="M876.99,340.28c-3.91,0-8.24-.13-12.87-.37-4.69-.23-9.49-.82-14.32-1.71-4.9-.9-9.67-2.35-14.2-4.29-4.62-1.96-8.87-4.7-12.64-8.14-4.2-3.87-7.5-8.26-9.82-13.06-2.26-4.69-3.97-9.59-5.09-14.58-1.09-4.93-1.82-9.78-2.14-14.36-.33-4.53-.49-8.53-.49-11.84,0-3.64.16-7.88.49-12.61.32-4.82,1.09-9.76,2.26-14.71,1.2-4.96,2.94-9.91,5.2-14.71,2.31-4.93,5.55-9.27,9.59-12.9,3.76-3.44,8.01-6.16,12.63-8.14,4.53-1.94,9.3-3.38,14.19-4.33,4.84-.93,9.67-1.49,14.38-1.66,4.6-.16,8.93-.25,12.83-.25s8.23.09,12.84.25c4.69.17,9.5.73,14.32,1.66,4.84.95,9.62,2.39,14.19,4.33,4.64,1.98,8.92,4.7,12.69,8.16,3.97,3.63,7.15,7.96,9.47,12.89,2.25,4.8,4,9.69,5.19,14.52,1.18,4.83,1.95,9.65,2.26,14.35.33,4.65.5,8.74.5,12.2,0,14.12-1.68,25.64-4.95,34.3-3.3,8.72-7.48,15.58-12.41,20.43-3.64,3.48-7.9,6.25-12.66,8.23-4.64,1.93-9.5,3.37-14.43,4.27-4.87.89-9.7,1.48-14.38,1.71-4.63.24-8.87.37-12.64.37ZM876.99,229.52c-2.25,0-4.83.07-7.65.23-2.69.14-5.38.56-7.97,1.25-2.57.66-5.17,1.66-7.71,2.98-2.42,1.25-4.52,2.91-6.21,4.97-1.86,2.08-3.3,4.53-4.34,7.34-1.09,2.94-1.88,5.98-2.34,8.99-.46,3.1-.73,6.11-.8,8.93-.09,2.91-.13,5.42-.13,7.48,0,5.32.36,11,1.08,16.9.66,5.53,2.92,10.55,6.74,14.95,3.84,4.29,8.4,7.04,13.5,8.17,5.43,1.2,10.77,1.81,15.84,1.81s10.46-.6,15.78-1.79c4.99-1.13,9.49-3.9,13.36-8.2,3.89-4.4,6.19-9.35,6.9-14.71.74-5.75,1.12-11.52,1.12-17.13v-7.78c0-2.81-.24-5.73-.73-8.72-.5-2.94-1.29-5.91-2.35-8.79-1-2.71-2.55-5.18-4.63-7.33-2.01-2.15-4.17-3.87-6.46-5.13-2.32-1.3-4.79-2.29-7.28-2.97-2.55-.67-5.16-1.09-7.74-1.23-2.71-.16-5.39-.23-7.96-.23Z"/>
      <path class="cls-10" d="M968.6,338.83v-149.52c0-26.92,33.47-26.92,33.47-26.92v176.44h-33.47Z"/>
      <path class="cls-9" d="M1059.55,338.83c-3.67,0-7.67-.24-11.88-.73-4.61-.53-9.07-2.61-13.24-6.16-2.81-2.55-5.06-5.48-6.74-8.74-1.65-3.21-2.88-6.56-3.67-10.02-.79-3.4-1.28-6.74-1.43-9.93-.17-3.07-.24-5.91-.24-8.43,0-5.91.65-11.78,1.91-17.46,1.35-6.04,4.67-11.4,9.92-15.94,4.44-3.87,9.02-6.25,13.57-7.08,4.29-.77,8.24-1.18,11.81-1.18h54.03v-6.74c0-1.75-.19-3.64-.54-5.6-.33-1.71-1.2-3.41-2.61-5.09-1.66-2.12-3.43-3.38-5.48-3.9-2.35-.57-4.59-.87-6.61-.87h-66.43v-26.76h76.24c5.78,0,11.22.95,16.23,2.84,5.06,1.92,9.25,4.59,12.43,7.95,2.98,2.88,5.5,7.17,7.41,12.64,1.88,5.38,2.82,11.98,2.82,19.64v67.41c0,2.37-.32,5.29-.93,8.69-.69,3.73-2.32,6.97-4.87,9.6-2.69,2.69-5.93,4.36-9.69,4.99-3.38.59-6.74.87-9.98.87h-62.03ZM1059.57,283.36c-.26.39-.78,1.33-1.75,3.57-.47,1.15-1.06,3.64-1.06,9.07,0,1.88.2,4.26.57,7.04.34,2.41,1.2,4.3,2.69,5.78.76.76,1.91,1.53,3.37,2.25,1.4.69,2.81,1,4.3,1h39.86c.83,0,1.83-.03,2.95-.1.69-.04,1.35-.33,1.99-.89.5-.42.83-.83.87-1.13.14-.75.2-1.55.2-2.45v-27.58h-45.41c-.6,0-1.85.1-4.39.62-1.61.32-3,1.25-4.21,2.82Z"/>
      <polygon class="cls-11" points="1192.36 376.76 1212.57 335.97 1153.7 204.19 1188.61 204.19 1228.79 300.32 1271.25 204.66 1305.66 204.66 1226.82 376.76 1192.36 376.76"/>
      <path class="cls-3" d="M1310.74,338.83v-26.76h75.43c1.23,0,2.67-.2,4.27-.57,1.32-.34,2.46-1.09,3.5-2.29l.06-.09.07-.06c.89-.89,1.38-1.81,1.48-2.82.14-1.48.23-2.71.23-3.65,0-1.55-.19-3.07-.55-4.53-.27-1.16-1.05-2.35-2.26-3.53-.4-.34-.92-.66-1.52-.96-.72-.36-1.91-.85-3.54-1.45-1.66-.63-3.9-1.36-6.61-2.16-2.75-.83-6.45-1.91-10.98-3.17l-25.03-6.94c-6.97-1.79-13.02-4.04-17.92-6.68-5.03-2.69-9.03-6.03-11.85-9.89-2.77-3.89-4.56-7.99-5.39-12.21-.79-4.04-1.18-7.8-1.18-11.22s.39-7.18,1.19-11.22c.82-4.23,2.62-8.33,5.36-12.18,2.19-2.9,4.63-5.2,7.28-6.91,2.64-1.68,5.46-2.92,8.4-3.7,2.85-.76,5.83-1.23,8.86-1.4,2.92-.14,5.82-.23,8.63-.23h75.66v26.76h-71.33c-1.52,0-3.11.07-4.76.22-1.26.13-2.58.69-3.87,1.69-1.28.99-2.04,1.98-2.24,2.95-.29,1.4-.43,2.91-.43,4.5s.17,3.21.53,4.64c.27,1.12,1.2,2.32,2.77,3.57.83.7,1.89,1.33,3.17,1.92,1.42.64,2.88,1.25,4.36,1.78,1.55.56,3.02,1.07,4.44,1.53,1.33.44,2.38.75,3.15.87l.1.03,28.01,7.93c7.9,2.35,14.56,4.56,19.85,6.59,5.58,2.17,10.16,5.12,13.66,8.79,3.51,3.93,5.81,8.27,6.89,12.94,1.03,4.47,1.55,8.69,1.55,12.51,0,8.19-1.28,14.69-3.83,19.34-2.52,4.63-5.07,7.94-7.83,10.16-3.64,2.75-7.54,4.43-11.67,5.06-3.86.56-7.42.85-10.65.85h-85.48Z"/>
      <path class="cls-12" d="M1518.56,340.28c-3.93,0-8.26-.13-12.87-.37-4.67-.23-9.49-.82-14.32-1.71-4.89-.9-9.67-2.35-14.2-4.29-4.62-1.96-8.87-4.7-12.64-8.14-4.18-3.87-7.5-8.26-9.82-13.06-2.25-4.69-3.97-9.59-5.09-14.58-1.09-4.93-1.82-9.76-2.15-14.36-.31-4.53-.49-8.53-.49-11.84,0-3.64.17-7.88.49-12.61.33-4.82,1.09-9.76,2.28-14.71,1.19-4.96,2.94-9.91,5.2-14.71,2.32-4.93,5.53-9.27,9.59-12.9,3.76-3.44,8.01-6.16,12.63-8.14,4.53-1.94,9.3-3.38,14.19-4.33,4.84-.93,9.69-1.49,14.38-1.66,4.6-.16,8.93-.25,12.83-.25s8.23.09,12.84.25c4.69.17,9.5.73,14.31,1.66,4.86.95,9.63,2.39,14.19,4.33,4.66,1.98,8.93,4.7,12.7,8.16,3.99,3.63,7.17,7.96,9.47,12.89,2.25,4.79,4,9.66,5.18,14.52,1.2,4.83,1.95,9.65,2.29,14.35.32,4.65.49,8.74.49,12.2,0,14.12-1.66,25.64-4.95,34.3-3.31,8.72-7.48,15.58-12.41,20.43-3.65,3.48-7.9,6.25-12.66,8.23-4.64,1.93-9.52,3.37-14.43,4.27-4.87.89-9.7,1.48-14.38,1.71-4.61.24-8.87.37-12.64.37ZM1518.56,229.52c-2.25,0-4.83.07-7.65.23-2.69.14-5.39.56-7.97,1.25-2.58.66-5.17,1.66-7.71,2.98-2.42,1.25-4.5,2.91-6.21,4.97-1.85,2.08-3.3,4.53-4.34,7.34-1.09,2.94-1.88,5.98-2.34,8.99-.46,3.1-.73,6.11-.82,8.93-.07,2.89-.11,5.42-.11,7.48,0,5.3.36,11,1.06,16.9.66,5.53,2.92,10.55,6.75,14.95,3.84,4.29,8.4,7.04,13.5,8.17,5.43,1.2,10.77,1.81,15.84,1.81s10.46-.6,15.77-1.79c5-1.13,9.49-3.9,13.37-8.2,3.89-4.4,6.21-9.35,6.9-14.71.74-5.75,1.12-11.51,1.12-17.13v-7.78c0-2.81-.24-5.73-.74-8.72-.49-2.94-1.28-5.91-2.34-8.79-.99-2.71-2.57-5.18-4.63-7.33-2.01-2.15-4.17-3.87-6.46-5.13-2.32-1.3-4.77-2.29-7.3-2.97-2.54-.67-5.14-1.09-7.74-1.23-2.69-.16-5.36-.23-7.94-.23Z"/>
      <path class="cls-4" d="M1620.59,338.83v-107.88h-18.21v-26.53h18.28c.09-1.68.27-3.51.55-5.49.42-3.01,1.16-6.12,2.19-9.23,1.05-3.14,2.49-6.26,4.29-9.27,1.85-3.1,4.3-5.92,7.3-8.39,3.24-2.65,7.17-4.8,11.67-6.39,4.39-1.56,9.03-2.74,13.82-3.51,4.74-.78,9.49-1.26,14.13-1.4,2.29-.09,4.53-.13,6.64-.13s4.17.04,6.12.13l2.26.09v25.7h-2.36c-7.31,0-13.22.2-17.52.59-3.94.37-7.11,1.36-9.39,2.95-1.55,1.06-3.04,2.9-4.44,5.43-1.15,2.08-1.78,4.99-1.86,8.7h35.58v26.76h-35.58v107.88h-33.46Z"/>
      <path class="cls-1" d="M1763.62,338.83c-9.06,0-16.34-.82-21.7-2.42-5.42-1.65-10.35-4.23-14.62-7.68-4.53-3.66-8-8.26-10.32-13.65-2.32-5.33-3.5-12.4-3.5-21v-104.77c0-26.92,33.34-26.92,33.34-26.92v41.8h36.29v26.76h-36.29v57.27c0,2.26.2,4.59.57,6.94.37,2.24,1.05,4.47,2.04,6.62.92,2.04,2.28,3.73,4.16,5.16,2.98,2.49,6.39,3.9,10.43,4.37,4.34.5,7.84.76,10.38.76h9.43v26.76h-20.21Z"/>
    </g>
    <g>
      <polygon class="cls-6" points="850.26 408.12 872.6 408.12 872.6 449.72 882.37 449.72 882.37 408.12 904.7 408.12 904.7 399.75 850.26 399.75 850.26 408.12"/>
      <polygon class="cls-6" points="956.1 428.13 986.28 428.13 986.28 419.73 956.1 419.73 956.1 408.12 991.15 408.12 991.15 399.75 946.34 399.75 946.34 449.72 991.98 449.72 991.98 441.32 956.1 441.32 956.1 428.13"/>
      <polygon class="cls-6" points="1085.51 399.75 1071.64 399.75 1043.93 423.03 1043.93 399.75 1034.17 399.75 1034.17 449.72 1043.93 449.72 1043.93 434.18 1054.58 425.29 1075.14 449.72 1087.92 449.72 1061.66 419.53 1085.51 399.75"/>
      <polygon class="cls-6" points="1173.36 435.81 1139.94 399.75 1129.64 399.75 1129.64 449.72 1138.98 449.72 1138.98 412.31 1173.76 449.72 1182.69 449.72 1182.69 399.75 1173.36 399.75 1173.36 435.81"/>
      <path class="cls-6" d="M1255.41,398.49c-21.99,0-29.77,12.93-29.77,26.6,0,10.38,6.12,25.86,29.77,25.86s29.76-15.48,29.76-25.86c0-13.67-7.77-26.6-29.76-26.6ZM1255.41,442.55c-9.35,0-20.01-3.84-20.01-18,0-12.01,8.6-17.66,20.01-17.66s20,5.65,20,17.66c0,14.16-10.65,18-20,18Z"/>
      <polygon class="cls-6" points="1337.87 399.75 1328.11 399.75 1328.11 449.72 1374.1 449.72 1374.1 441.03 1337.87 441.03 1337.87 399.75"/>
      <path class="cls-6" d="M1442.47,398.49c-21.99,0-29.76,12.93-29.76,26.6,0,10.38,6.12,25.86,29.76,25.86s29.76-15.48,29.76-25.86c0-13.67-7.75-26.6-29.76-26.6ZM1442.47,442.55c-9.35,0-20-3.84-20-18,0-12.01,8.59-17.66,20-17.66s20.01,5.65,20.01,17.66c0,14.16-10.67,18-20.01,18Z"/>
      <path class="cls-6" d="M1535.59,430.2c.14,7.34-2.12,11.47-13.59,11.41-4.33,0-7.7-.69-11.21-1.61v9.15c2.41.63,7.68,1.12,12.37,1.12,14.71,0,22.06-4.82,22.2-19.52v-30.99h-9.78v30.45Z"/>
      <rect class="cls-6" x="1592.15" y="399.75" width="9.76" height="15.6"/>
      <rect class="cls-6" x="1592.15" y="421.88" width="9.76" height="27.84"/>
    </g>
  </g>
</svg>